<svg xmlns="http://www.w3.org/2000/svg" width="106.92" height="115.16" viewBox="0 0 106.92 115.16">
  <title>Remote Jobs Logo</title>
  <path d="M89,29.76,74.66,39.59l10.24,14L86.79,42.7l20.13.16Zm-27.82-5.9L36.71,0l2.4,17.27ZM61.53,28,32.19,19,0,9.1,42.79,66.47h0v.13l-22,48.56L45.4,98.26l-.89-11,38-30.37Z" style="fill: #9e12b1"/>
  <g>
    <g>
      <path d="M0,9,42.79,66,61.53,27.8Z" style="fill: #47d9fb"/>
      <path d="M32.19,18.84,42.79,66,61.53,27.8Z" style="fill: #1db5f0"/>
      <path d="M61.53,27.8l21,28.68L42.79,66Z" style="fill: #c91b88"/>
      <path d="M82.54,56.48l-38,30.16L42.79,66Z" style="fill: #b31097"/>
      <path d="M20.78,114.4,45.4,97.61,42.83,66Z" style="fill: #9e12b1"/>
    </g>
    <path d="M86.79,42.42l20.13.16L89,29.56Z" style="fill: #b31097"/>
    <path d="M36.71,0l2.4,17.15,22.1,6.55Z" style="fill: #9e12b1"/>
  </g>
</svg>
